<svg xmlns="http://www.w3.org/2000/svg" viewBox="0 0 100 100" fill="none">
  <defs>
    <linearGradient id="g1" x1="0" y1="0" x2="1" y2="1">
      <stop offset="0%" stop-color="#f472b6"/>
      <stop offset="100%" stop-color="#E9473F"/>
    </linearGradient>
    <linearGradient id="g2" x1="0" y1="1" x2="1" y2="0">
      <stop offset="0%" stop-color="#E9473F"/>
      <stop offset="100%" stop-color="#f472b6"/>
    </linearGradient>
  </defs>

  <!-- Rounded square background -->
  <rect x="2" y="2" width="96" height="96" rx="22" fill="#1a1a2e"/>
  <rect x="2" y="2" width="96" height="96" rx="22" fill="none" stroke="url(#g1)" stroke-width="1.5" opacity="0.4"/>

  <!-- Central AI node -->
  <circle cx="50" cy="46" r="11" fill="url(#g1)" opacity="0.15"/>
  <circle cx="50" cy="46" r="7.5" fill="url(#g1)"/>

  <!-- Top person -->
  <circle cx="50" cy="18" r="5" fill="url(#g2)"/>

  <!-- Bottom-left person -->
  <circle cx="26" cy="72" r="5" fill="url(#g1)"/>

  <!-- Bottom-right person -->
  <circle cx="74" cy="72" r="5" fill="url(#g2)"/>

  <!-- Side nodes -->
  <circle cx="20" cy="38" r="3" fill="#f472b6" opacity="0.6"/>
  <circle cx="80" cy="38" r="3" fill="#E9473F" opacity="0.6"/>

  <!-- Connections -->
  <line x1="50" y1="23" x2="50" y2="39" stroke="url(#g1)" stroke-width="1.5" opacity="0.5"/>
  <line x1="50" y1="53" x2="30" y2="68" stroke="url(#g1)" stroke-width="1.5" opacity="0.5"/>
  <line x1="50" y1="53" x2="70" y2="68" stroke="url(#g2)" stroke-width="1.5" opacity="0.5"/>
  <line x1="50" y1="23" x2="23" y2="36" stroke="#f472b6" stroke-width="1" opacity="0.35"/>
  <line x1="50" y1="23" x2="77" y2="36" stroke="#E9473F" stroke-width="1" opacity="0.35"/>
  <line x1="23" y1="40" x2="30" y2="68" stroke="#f472b6" stroke-width="1" opacity="0.3"/>
  <line x1="77" y1="40" x2="70" y2="68" stroke="#E9473F" stroke-width="1" opacity="0.3"/>

  <!-- Data particles -->
  <circle cx="38" cy="30" r="1.8" fill="#f472b6" opacity="0.7"/>
  <circle cx="64" cy="58" r="1.8" fill="#E9473F" opacity="0.7"/>
  <circle cx="36" cy="58" r="1.5" fill="#f472b6" opacity="0.5"/>
  <circle cx="66" cy="32" r="1.5" fill="#E9473F" opacity="0.5"/>
</svg>
